<?xml version="1.0" standalone="no"?>
<!DOCTYPE svg PUBLIC "-//W3C//DTD SVG 1.1//EN" "http://www.w3.org/Graphics/SVG/1.1/DTD/svg11.dtd">
<svg width="266mm" height="164mm" viewBox="-26 -14 266 164" xmlns="http://www.w3.org/2000/svg" version="1.1">
<title>OpenSCAD Model</title>
<path d="
M 173.8,10.23 L 178.8,10.23 L 178.8,13.431 L 183.8,13.431 L 183.8,10.23 L 188.8,10.23
 L 188.8,13.431 L 193.8,13.431 L 193.8,10.23 L 198.8,10.23 L 198.8,13.431 L 203.8,13.431
 L 203.8,10.23 L 208.8,10.23 L 208.8,13.431 L 213.8,13.431 L 213.8,10.23 L 218.8,10.23
 L 218.8,13.431 L 223.8,13.431 L 223.8,10.23 L 228.8,10.23 L 228.8,13.431 L 233.8,13.431
 L 233.8,10.23 L 236.3,10.23 L 236.3,7.49998 L 239.5,7.49998 L 239.5,2.49998 L 236.3,2.49998
 L 236.3,-2.5 L 239.5,-2.5 L 239.5,-7.5 L 236.3,-7.5 L 236.3,-13.431 L 166.301,-13.431
 L 166.301,-7.5 L 163.1,-7.5 L 163.1,-2.5 L 166.301,-2.5 L 166.301,2.49998 L 163.1,2.49998
 L 163.1,7.49998 L 166.301,7.49998 L 166.301,10.23 L 168.8,10.23 L 168.8,13.431 L 173.8,13.431
 z
M 94.2,10.23 L 99.2,10.23 L 99.2,13.431 L 104.2,13.431 L 104.2,10.23 L 109.2,10.23
 L 109.2,13.431 L 114.2,13.431 L 114.2,10.23 L 119.2,10.23 L 119.2,13.431 L 124.2,13.431
 L 124.2,10.23 L 129.2,10.23 L 129.2,13.431 L 134.2,13.431 L 134.2,10.23 L 139.2,10.23
 L 139.2,13.431 L 144.2,13.431 L 144.2,10.23 L 149.2,10.23 L 149.2,13.431 L 154.2,13.431
 L 154.2,10.23 L 156.7,10.23 L 156.7,7.49998 L 159.9,7.49998 L 159.9,2.49998 L 156.7,2.49998
 L 156.7,-2.5 L 159.9,-2.5 L 159.9,-7.5 L 156.7,-7.5 L 156.7,-13.431 L 86.701,-13.431
 L 86.701,-7.5 L 83.5,-7.5 L 83.5,-2.5 L 86.701,-2.5 L 86.701,2.49998 L 83.5,2.49998
 L 83.5,7.49998 L 86.701,7.49998 L 86.701,10.23 L 89.2,10.23 L 89.2,13.431 L 94.2,13.431
 z
M 37.1,10.23 L 42.1,10.23 L 42.1,13.431 L 47.1,13.431 L 47.1,10.23 L 52.1,10.23
 L 52.1,13.431 L 57.1,13.431 L 57.1,10.23 L 62.1,10.23 L 62.1,13.431 L 67.1,13.431
 L 67.1,10.23 L 72.1,10.23 L 72.1,13.431 L 80.3,13.431 L 80.3,7.5 L 77.1,7.5
 L 77.1,2.5 L 80.3,2.5 L 80.3,-2.5 L 77.1,-2.5 L 77.1,-7.5 L 80.3,-7.5
 L 80.3,-13.431 L 28.9,-13.431 L 28.9,-7.5 L 32.101,-7.5 L 32.101,-2.5 L 28.9,-2.5
 L 28.9,2.5 L 32.101,2.5 L 32.101,7.5 L 28.9,7.5 L 28.9,13.431 L 37.1,13.431
 z
M -17.5,10.23 L -12.5,10.23 L -12.5,13.431 L -7.5,13.431 L -7.5,10.23 L -2.5,10.23
 L -2.5,13.431 L 2.5,13.431 L 2.5,10.23 L 7.5,10.23 L 7.5,13.431 L 12.5,13.431
 L 12.5,10.23 L 17.5,10.23 L 17.5,13.431 L 25.7,13.431 L 25.7,7.5 L 22.5,7.5
 L 22.5,2.5 L 25.7,2.5 L 25.7,-2.5 L 22.5,-2.5 L 22.5,-7.5 L 25.7,-7.5
 L 25.7,-13.431 L -25.7,-13.431 L -25.7,-7.5 L -22.499,-7.5 L -22.499,-2.5 L -25.7,-2.5
 L -25.7,2.5 L -22.499,2.5 L -22.499,7.5 L -25.7,7.5 L -25.7,13.431 L -17.5,13.431
 z
M 201.3,88.262 L 206.3,88.262 L 206.3,91.462 L 211.3,91.462 L 211.3,88.262 L 216.3,88.262
 L 216.3,91.462 L 221.3,91.462 L 221.3,88.262 L 226.3,88.262 L 226.3,91.462 L 231.3,91.462
 L 231.3,88.262 L 239.5,88.262 L 239.5,85.762 L 236.299,85.762 L 236.299,80.762 L 239.5,80.762
 L 239.5,75.762 L 236.299,75.762 L 236.299,70.762 L 239.5,70.762 L 239.5,65.762 L 236.299,65.762
 L 236.299,60.762 L 239.5,60.762 L 239.5,55.762 L 236.299,55.762 L 236.299,50.762 L 239.5,50.762
 L 239.5,45.762 L 236.299,45.762 L 236.299,40.762 L 239.5,40.762 L 239.5,35.762 L 236.299,35.762
 L 236.299,30.762 L 239.5,30.762 L 239.5,25.762 L 236.299,25.762 L 236.299,20.762 L 239.5,20.762
 L 239.5,18.263 L 231.3,18.263 L 231.3,15.062 L 226.3,15.062 L 226.3,18.263 L 221.3,18.263
 L 221.3,15.062 L 216.3,15.062 L 216.3,18.263 L 211.3,18.263 L 211.3,15.062 L 206.3,15.062
 L 206.3,18.263 L 201.3,18.263 L 201.3,15.062 L 196.3,15.062 L 196.3,18.263 L 188.1,18.263
 L 188.1,20.762 L 191.3,20.762 L 191.3,25.762 L 188.1,25.762 L 188.1,30.762 L 191.3,30.762
 L 191.3,35.762 L 188.1,35.762 L 188.1,40.762 L 191.3,40.762 L 191.3,45.762 L 188.1,45.762
 L 188.1,50.762 L 191.3,50.762 L 191.3,55.762 L 188.1,55.762 L 188.1,60.762 L 191.3,60.762
 L 191.3,65.762 L 188.1,65.762 L 188.1,70.762 L 191.3,70.762 L 191.3,75.762 L 188.1,75.762
 L 188.1,80.762 L 191.3,80.762 L 191.3,85.762 L 188.1,85.762 L 188.1,88.262 L 196.3,88.262
 L 196.3,91.462 L 201.3,91.462 z
M -12.5,89.83 L -7.5,89.83 L -7.5,93.031 L -2.5,93.031 L -2.5,89.83 L 2.49998,89.83
 L 2.49998,93.031 L 7.49998,93.031 L 7.49998,89.83 L 12.5,89.83 L 12.5,93.031 L 17.5,93.031
 L 17.5,89.83 L 25.7,89.83 L 25.7,87.331 L 22.5,87.331 L 22.5,82.331 L 25.7,82.331
 L 25.7,77.331 L 22.5,77.331 L 22.5,72.331 L 25.7,72.331 L 25.7,67.331 L 22.5,67.331
 L 22.5,62.331 L 25.7,62.331 L 25.7,57.331 L 22.5,57.331 L 22.5,52.331 L 25.7,52.331
 L 25.7,47.331 L 22.5,47.331 L 22.5,42.331 L 25.7,42.331 L 25.7,37.331 L 22.5,37.331
 L 22.5,32.331 L 25.7,32.331 L 25.7,27.331 L 22.5,27.331 L 22.5,22.331 L 25.7,22.331
 L 25.7,19.831 L 17.5,19.831 L 17.5,16.631 L 12.5,16.631 L 12.5,19.831 L 7.49998,19.831
 L 7.49998,16.631 L 2.49998,16.631 L 2.49998,19.831 L -2.5,19.831 L -2.5,16.631 L -7.5,16.631
 L -7.5,19.831 L -12.5,19.831 L -12.5,16.631 L -17.5,16.631 L -17.5,19.831 L -25.7,19.831
 L -25.7,22.331 L -22.499,22.331 L -22.499,27.331 L -25.7,27.331 L -25.7,32.331 L -22.499,32.331
 L -22.499,37.331 L -25.7,37.331 L -25.7,42.331 L -22.499,42.331 L -22.499,47.331 L -25.7,47.331
 L -25.7,52.331 L -22.499,52.331 L -22.499,57.331 L -25.7,57.331 L -25.7,62.331 L -22.499,62.331
 L -22.499,67.331 L -25.7,67.331 L -25.7,72.331 L -22.499,72.331 L -22.499,77.331 L -25.7,77.331
 L -25.7,82.331 L -22.499,82.331 L -22.499,87.331 L -25.7,87.331 L -25.7,89.83 L -17.5,89.83
 L -17.5,93.031 L -12.5,93.031 z
M 123.325,49.25 L 103.325,49.25 L 103.325,59.25 L 123.325,59.25 z
M 239.5,139.431 L 236.299,139.431 L 236.299,134.431 L 239.5,134.431 L 239.5,129.431 L 236.299,129.431
 L 236.299,124.431 L 239.5,124.431 L 239.5,119.431 L 236.299,119.431 L 236.299,114.431 L 239.5,114.431
 L 239.5,109.431 L 236.299,109.431 L 236.299,104.431 L 239.5,104.431 L 239.5,94.662 L 231.3,94.662
 L 231.3,97.863 L 226.3,97.863 L 226.3,94.662 L 221.3,94.662 L 221.3,97.863 L 216.3,97.863
 L 216.3,94.662 L 211.3,94.662 L 211.3,97.863 L 206.3,97.863 L 206.3,94.662 L 201.3,94.662
 L 201.3,97.863 L 196.3,97.863 L 196.3,94.662 L 188.1,94.662 L 188.1,104.431 L 191.3,104.431
 L 191.3,109.431 L 188.1,109.431 L 188.1,114.431 L 191.3,114.431 L 191.3,119.431 L 188.1,119.431
 L 188.1,124.431 L 191.3,124.431 L 191.3,129.431 L 188.1,129.431 L 188.1,134.431 L 191.3,134.431
 L 191.3,139.431 L 188.1,139.431 L 188.1,149.2 L 239.5,149.2 z
M 184.9,139.431 L 181.699,139.431 L 181.699,134.431 L 184.9,134.431 L 184.9,129.431 L 181.699,129.431
 L 181.699,124.431 L 184.9,124.431 L 184.9,119.431 L 181.699,119.431 L 181.699,114.431 L 184.9,114.431
 L 184.9,109.431 L 181.699,109.431 L 181.699,104.431 L 184.9,104.431 L 184.9,94.662 L 176.7,94.662
 L 176.7,97.863 L 171.7,97.863 L 171.7,94.662 L 166.7,94.662 L 166.7,97.863 L 161.7,97.863
 L 161.7,94.662 L 156.7,94.662 L 156.7,97.863 L 151.7,97.863 L 151.7,94.662 L 146.7,94.662
 L 146.7,97.863 L 141.7,97.863 L 141.7,94.662 L 133.5,94.662 L 133.5,104.431 L 136.7,104.431
 L 136.7,109.431 L 133.5,109.431 L 133.5,114.431 L 136.7,114.431 L 136.7,119.431 L 133.5,119.431
 L 133.5,124.431 L 136.7,124.431 L 136.7,129.431 L 133.5,129.431 L 133.5,134.431 L 136.7,134.431
 L 136.7,139.431 L 133.5,139.431 L 133.5,149.2 L 184.9,149.2 z
M 127.099,139.431 L 130.3,139.431 L 130.3,134.431 L 127.099,134.431 L 127.099,129.431 L 130.3,129.431
 L 130.3,124.431 L 127.099,124.431 L 127.099,119.431 L 130.3,119.431 L 130.3,114.431 L 127.099,114.431
 L 127.099,109.431 L 130.3,109.431 L 130.3,104.431 L 127.099,104.431 L 127.099,97.863 L 124.6,97.863
 L 124.6,94.662 L 119.6,94.662 L 119.6,97.863 L 114.6,97.863 L 114.6,94.662 L 109.6,94.662
 L 109.6,97.863 L 104.6,97.863 L 104.6,94.662 L 99.6,94.662 L 99.6,97.863 L 94.6,97.863
 L 94.6,94.662 L 89.6,94.662 L 89.6,97.863 L 84.6,97.863 L 84.6,94.662 L 79.6,94.662
 L 79.6,97.863 L 74.6,97.863 L 74.6,94.662 L 69.6,94.662 L 69.6,97.863 L 64.6,97.863
 L 64.6,94.662 L 59.6,94.662 L 59.6,97.863 L 57.1,97.863 L 57.1,104.431 L 53.9,104.431
 L 53.9,109.431 L 57.1,109.431 L 57.1,114.431 L 53.9,114.431 L 53.9,119.431 L 57.1,119.431
 L 57.1,124.431 L 53.9,124.431 L 53.9,129.431 L 57.1,129.431 L 57.1,134.431 L 53.9,134.431
 L 53.9,139.431 L 57.1,139.431 L 57.1,149.2 L 127.099,149.2 z
M 47.499,139.431 L 50.7,139.431 L 50.7,134.431 L 47.499,134.431 L 47.499,129.431 L 50.7,129.431
 L 50.7,124.431 L 47.499,124.431 L 47.499,119.431 L 50.7,119.431 L 50.7,114.431 L 47.499,114.431
 L 47.499,109.431 L 50.7,109.431 L 50.7,104.431 L 47.499,104.431 L 47.499,97.863 L 45,97.863
 L 45,94.662 L 40,94.662 L 40,97.863 L 35,97.863 L 35,94.662 L 30,94.662
 L 30,97.863 L 25,97.863 L 25,94.662 L 20,94.662 L 20,97.863 L 15,97.863
 L 15,94.662 L 10,94.662 L 10,97.863 L 5.00002,97.863 L 5.00002,94.662 L 1.52588e-05,94.662
 L 1.52588e-05,97.863 L -4.99997,97.863 L -4.99997,94.662 L -9.99997,94.662 L -9.99997,97.863 L -15,97.863
 L -15,94.662 L -20,94.662 L -20,97.863 L -22.5,97.863 L -22.5,104.431 L -25.7,104.431
 L -25.7,109.431 L -22.5,109.431 L -22.5,114.431 L -25.7,114.431 L -25.7,119.431 L -22.5,119.431
 L -22.5,124.431 L -25.7,124.431 L -25.7,129.431 L -22.5,129.431 L -22.5,134.431 L -25.7,134.431
 L -25.7,139.431 L -22.5,139.431 L -22.5,149.2 L 47.499,149.2 z
" stroke="black" fill="lightgray" stroke-width="0.5"/>
</svg>
